<svg width="7" height="12" viewBox="0 0 7 12" fill="none" xmlns="http://www.w3.org/2000/svg">
<path d="M0.856752 11.9984C0.656921 11.9988 0.463263 11.9292 0.309394 11.8017C0.222793 11.7299 0.151207 11.6417 0.0987361 11.5422C0.0462651 11.4427 0.0139399 11.3339 0.00361207 11.2218C-0.00671577 11.1098 0.00515678 10.9969 0.0385494 10.8894C0.0719421 10.782 0.126198 10.6822 0.198212 10.5958L4.02972 6.0117L0.335052 1.41903C0.26401 1.33154 0.210957 1.23089 0.178944 1.12283C0.146931 1.01478 0.136587 0.90147 0.148509 0.789409C0.16043 0.677347 0.194381 0.568747 0.24841 0.469849C0.302439 0.370951 0.375482 0.283706 0.463338 0.213129C0.551827 0.13527 0.655454 0.0765425 0.767715 0.0406316C0.879977 0.0047206 0.99845 -0.00759811 1.1157 0.00444794C1.23295 0.016494 1.34644 0.052645 1.44905 0.110632C1.55167 0.16862 1.64119 0.247191 1.712 0.341416L5.84284 5.47289C5.96863 5.62593 6.0374 5.81788 6.0374 6.01597C6.0374 6.21407 5.96863 6.40602 5.84284 6.55906L1.56661 11.6905C1.48081 11.794 1.37182 11.8758 1.24849 11.9293C1.12515 11.9828 0.990945 12.0065 0.856752 11.9984Z" fill="white"/>
</svg>
