<svg width="129" height="15" viewBox="0 0 129 15" fill="none" xmlns="http://www.w3.org/2000/svg">
<path d="M3.186 10.328C3.282 11.012 3.516 11.54 3.888 11.912C4.272 12.284 4.788 12.47 5.436 12.47C6.348 12.47 7.026 12.11 7.47 11.39C7.926 10.658 8.154 9.512 8.154 7.952L8.136 7.34C7.944 7.988 7.542 8.51 6.93 8.906C6.33 9.29 5.628 9.482 4.824 9.482C3.576 9.482 2.598 9.11 1.89 8.366C1.182 7.61 0.828 6.56 0.828 5.216C0.828 4.4 0.99 3.668 1.314 3.02C1.638 2.372 2.124 1.862 2.772 1.49C3.42 1.106 4.218 0.913999 5.166 0.913999C7.002 0.913999 8.262 1.478 8.946 2.606C9.642 3.722 9.99 5.27 9.99 7.25C9.99 9.494 9.636 11.204 8.928 12.38C8.232 13.556 7.068 14.144 5.436 14.144C4.176 14.144 3.186 13.79 2.466 13.082C1.758 12.362 1.35 11.444 1.242 10.328H3.186ZM7.938 5.432C7.938 4.652 7.71 4.004 7.254 3.488C6.81 2.96 6.138 2.696 5.238 2.696C4.494 2.696 3.894 2.918 3.438 3.362C2.994 3.806 2.772 4.43 2.772 5.234C2.772 6.086 2.994 6.74 3.438 7.196C3.894 7.652 4.512 7.88 5.292 7.88C5.748 7.88 6.174 7.79 6.57 7.61C6.978 7.418 7.308 7.142 7.56 6.782C7.812 6.41 7.938 5.96 7.938 5.432ZM11.852 7.556C11.852 9.584 12.212 11.174 12.932 12.326C13.652 13.466 14.852 14.036 16.532 14.036C18.212 14.036 19.412 13.46 20.132 12.308C20.852 11.156 21.212 9.572 21.212 7.556C21.212 5.552 20.852 3.98 20.132 2.84C19.412 1.688 18.212 1.112 16.532 1.112C14.852 1.112 13.652 1.682 12.932 2.822C12.212 3.962 11.852 5.54 11.852 7.556ZM19.16 7.556C19.16 9.02 18.98 10.142 18.62 10.922C18.26 11.702 17.564 12.092 16.532 12.092C15.488 12.092 14.786 11.702 14.426 10.922C14.066 10.142 13.886 9.02 13.886 7.556C13.886 6.104 14.066 4.994 14.426 4.226C14.786 3.458 15.488 3.074 16.532 3.074C17.564 3.074 18.26 3.464 18.62 4.244C18.98 5.012 19.16 6.116 19.16 7.556ZM22.7609 11.264V9.536L29.0789 1.184H31.2749V9.464H33.0569V11.264H31.2749V14H29.2049V11.264H22.7609ZM29.3489 3.632L24.8849 9.464H29.3489V3.632ZM45.0294 6.62V8.348H37.6134V6.62H45.0294ZM51.8196 12.398C53.7636 11.066 55.3176 9.764 56.4816 8.492C57.6576 7.208 58.2456 6.02 58.2456 4.928C58.2456 4.28 58.0836 3.764 57.7596 3.38C57.4476 2.996 56.9376 2.804 56.2296 2.804C55.4976 2.804 54.9456 3.044 54.5736 3.524C54.2016 3.992 53.9916 4.664 53.9436 5.54H51.9456C52.0296 4.088 52.4736 2.978 53.2776 2.21C54.0936 1.442 55.1316 1.058 56.3916 1.058C57.6276 1.058 58.5936 1.388 59.2896 2.048C59.9976 2.696 60.3516 3.596 60.3516 4.748C60.3516 5.672 60.0636 6.608 59.4876 7.556C58.9236 8.504 58.2036 9.38 57.3276 10.184C56.4516 10.976 55.5456 11.66 54.6096 12.236H60.6396V13.91H51.8196V12.398ZM64.4985 10.328C64.5945 11.012 64.8285 11.54 65.2005 11.912C65.5845 12.284 66.1005 12.47 66.7485 12.47C67.6605 12.47 68.3385 12.11 68.7825 11.39C69.2385 10.658 69.4665 9.512 69.4665 7.952L69.4485 7.34C69.2565 7.988 68.8545 8.51 68.2425 8.906C67.6425 9.29 66.9405 9.482 66.1365 9.482C64.8885 9.482 63.9105 9.11 63.2025 8.366C62.4945 7.61 62.1405 6.56 62.1405 5.216C62.1405 4.4 62.3025 3.668 62.6265 3.02C62.9505 2.372 63.4365 1.862 64.0845 1.49C64.7325 1.106 65.5305 0.913999 66.4785 0.913999C68.3145 0.913999 69.5745 1.478 70.2585 2.606C70.9545 3.722 71.3025 5.27 71.3025 7.25C71.3025 9.494 70.9485 11.204 70.2405 12.38C69.5445 13.556 68.3805 14.144 66.7485 14.144C65.4885 14.144 64.4985 13.79 63.7785 13.082C63.0705 12.362 62.6625 11.444 62.5545 10.328H64.4985ZM69.2505 5.432C69.2505 4.652 69.0225 4.004 68.5665 3.488C68.1225 2.96 67.4505 2.696 66.5505 2.696C65.8065 2.696 65.2065 2.918 64.7505 3.362C64.3065 3.806 64.0845 4.43 64.0845 5.234C64.0845 6.086 64.3065 6.74 64.7505 7.196C65.2065 7.652 65.8245 7.88 66.6045 7.88C67.0605 7.88 67.4865 7.79 67.8825 7.61C68.2905 7.418 68.6205 7.142 68.8725 6.782C69.1245 6.41 69.2505 5.96 69.2505 5.432ZM80.8865 2.768L76.1525 14H73.9925L78.7985 3.002H72.4985V1.22H80.8865V2.768ZM92.8243 6.62V8.348H85.4083V6.62H92.8243ZM94.9098 3.218V1.292H98.9778V14H96.8178V3.218H94.9098ZM108.853 2.768L104.119 14H101.959L106.765 3.002H100.465V1.22H108.853V2.768ZM117.976 2.768L113.242 14H111.082L115.888 3.002H109.588V1.22H117.976V2.768ZM119.701 4.244C119.701 3.62 119.869 3.05 120.205 2.534C120.541 2.018 121.039 1.604 121.699 1.292C122.371 0.979999 123.175 0.823999 124.111 0.823999C125.047 0.823999 125.845 0.979999 126.505 1.292C127.177 1.604 127.681 2.018 128.017 2.534C128.365 3.05 128.539 3.62 128.539 4.244C128.539 4.94 128.353 5.54 127.981 6.044C127.621 6.548 127.081 6.914 126.361 7.142C127.165 7.394 127.783 7.802 128.215 8.366C128.647 8.918 128.863 9.596 128.863 10.4C128.863 11.636 128.425 12.602 127.549 13.298C126.673 13.982 125.527 14.324 124.111 14.324C122.695 14.324 121.549 13.982 120.673 13.298C119.809 12.602 119.377 11.636 119.377 10.4C119.377 9.596 119.593 8.918 120.025 8.366C120.457 7.802 121.075 7.394 121.879 7.142C121.159 6.914 120.613 6.548 120.241 6.044C119.881 5.54 119.701 4.94 119.701 4.244ZM121.735 4.568C121.735 5.216 121.945 5.72 122.365 6.08C122.797 6.428 123.379 6.602 124.111 6.602C124.843 6.602 125.425 6.428 125.857 6.08C126.289 5.72 126.505 5.216 126.505 4.568C126.505 3.92 126.283 3.416 125.839 3.056C125.407 2.696 124.831 2.516 124.111 2.516C123.391 2.516 122.815 2.696 122.383 3.056C121.951 3.416 121.735 3.92 121.735 4.568ZM121.375 10.292C121.375 11.024 121.621 11.6 122.113 12.02C122.605 12.428 123.271 12.632 124.111 12.632C124.951 12.632 125.617 12.428 126.109 12.02C126.601 11.6 126.847 11.024 126.847 10.292C126.847 9.548 126.589 8.99 126.073 8.618C125.569 8.234 124.915 8.042 124.111 8.042C123.319 8.042 122.665 8.234 122.149 8.618C121.633 9.002 121.375 9.56 121.375 10.292Z" fill="#393939"/>
</svg>
