<svg width="110" height="110" viewBox="0 0 110 110" fill="none" xmlns="http://www.w3.org/2000/svg">
<path d="M93.8908 16.109C83.5027 5.72107 69.691 0 55 0C40.3088 0 26.4969 5.72107 16.109 16.109C5.72086 26.4971 0 40.309 0 55C0 69.691 5.72086 83.5027 16.109 93.8908C26.4971 104.279 40.3088 110 55 110C69.691 110 83.5027 104.279 93.8908 93.8908C104.279 83.5027 110 69.691 110 55C110 40.309 104.279 26.4973 93.8908 16.109ZM55 103.555C28.2268 103.555 6.44531 81.7732 6.44531 55C6.44531 28.2268 28.2268 6.44531 55 6.44531C81.7732 6.44531 103.555 28.2268 103.555 55C103.555 81.7732 81.7732 103.555 55 103.555Z" fill="url(#paint0_linear)"/>
<path d="M81.2773 37.3527C80.019 36.0946 77.9784 36.0946 76.7201 37.3529L48.2621 65.8109L33.2817 50.8305C32.0233 49.5722 29.9827 49.5722 28.7242 50.8305C27.4656 52.0888 27.4656 54.1294 28.7242 55.388L45.9832 72.647C46.6125 73.2763 47.4373 73.5908 48.2619 73.5908C49.0864 73.5908 49.9114 73.2761 50.5405 72.647L81.2773 41.9102C82.5359 40.6518 82.5359 38.6113 81.2773 37.3527Z" fill="url(#paint1_linear)"/>
<defs>
<linearGradient id="paint0_linear" x1="110" y1="110" x2="0" y2="0" gradientUnits="userSpaceOnUse">
<stop stop-color="#B5FFC6"/>
<stop offset="1" stop-color="#7AFF99"/>
</linearGradient>
<linearGradient id="paint1_linear" x1="82.2763" y1="73.3333" x2="27.7235" y2="36.6667" gradientUnits="userSpaceOnUse">
<stop stop-color="#B5FFC6"/>
<stop offset="1" stop-color="#7AFF99"/>
</linearGradient>
</defs>
</svg>
